<?xml version="1.0" encoding="UTF-8"?>
<svg viewBox="0 0 31 20" version="1.1" xmlns="http://www.w3.org/2000/svg" xmlns:xlink="http://www.w3.org/1999/xlink">
    <title>226-united-states</title>
    <g id="iOS/Android-вместе" stroke="none" stroke-width="1" fill="none" fill-rule="evenodd">
        <g id="main_1.1_languages" transform="translate(-1109.000000, -146.000000)" fill-rule="nonzero">
            <g id="languages_full-copy" transform="translate(1093.000000, 82.000000)">
                <g id="english" transform="translate(16.000000, 63.000000)">
                    <g id="226-united-states" transform="translate(0.000000, 1.000000)">
                        <path d="M28.6783301,5.9621404e-05 L2.32166992,5.9621404e-05 C1.0394082,5.9621404e-05 0,1.02358027 0,2.28624236 L0,17.7138173 C0,18.9764197 1.0394082,20 2.32166992,20 L28.6783301,20 C29.9605312,20 31,18.9764794 31,17.7138173 L31,2.28624236 C31,1.02358027 29.9605918,5.9621404e-05 28.6783301,5.9621404e-05 Z" id="Path" fill="#F5F5F5"></path>
                        <g id="Group" transform="translate(0.000000, 0.000060)" fill="#FF4B55">
                            <path d="M0.127693359,1.53847071 L30.8722461,1.53847071 C30.5576445,0.643136086 29.6944883,0 28.6783301,0 L2.32166992,0 C1.30545117,0 0.442355469,0.643136086 0.127693359,1.53847071 Z" id="Path"></path>
                            <rect id="Rectangle" x="0" y="6.1537636" width="31" height="1.53841109"></rect>
                            <rect id="Rectangle" x="0" y="3.07670294" width="31" height="1.53841109"></rect>
                            <path d="M0,10.242838 C0,10.5334923 0.239341797,10.7691757 0.534507813,10.7691757 L31,10.7691757 L31,9.23070502 L0,9.23070502 L0,10.242838 Z" id="Path"></path>
                            <rect id="Rectangle" x="0" y="15.3849456" width="31" height="1.53847071"></rect>
                            <path d="M30.8723066,18.46141 L0.127693359,18.46141 C0.442355469,19.3567447 1.30551172,19.9998808 2.32166992,19.9998808 L28.6783301,19.9998808 C29.6945488,19.9998808 30.5576445,19.3567447 30.8723066,18.46141 Z" id="Path"></path>
                            <rect id="Rectangle" x="0" y="12.3078849" width="31" height="1.53841109"></rect>
                        </g>
                        <path d="M0.534507812,10.7692354 L13.8965977,10.7692354 C14.1917637,10.7692354 14.4311055,10.5335519 14.4311055,10.2428976 L14.4311055,0.526337755 C14.4311055,0.235623789 14.1917637,0 13.8965977,0 L2.32166992,0 C1.0394082,0 0,1.02358027 0,2.28624236 L0,10.2428976 C0,10.5336116 0.239341797,10.7692354 0.534507812,10.7692354 Z" id="Path" fill="#41479B"></path>
                        <g id="Group" transform="translate(0.862953, 1.174109)" fill="#F5F5F5">
                            <path d="M0.637943597,0.0339394843 L0.756252191,0.383320912 L1.13025024,0.386123118 C1.17868774,0.386540468 1.19872875,0.4473543 1.15979711,0.475674467 L0.858939691,0.694425399 L0.971799066,1.04553585 C0.98645141,1.09096736 0.933836176,1.12864808 0.89442016,1.10086451 L0.590172113,0.886764048 L0.285924066,1.10092413 C0.246508051,1.12870771 0.19401391,1.09102698 0.20854516,1.04559547 L0.321404535,0.69448502 L0.020547113,0.475734089 C-0.0183845276,0.4473543 0.00165648803,0.386540468 0.050093988,0.38618274 L0.424092035,0.383380534 L0.542400629,0.0339991057 C0.557658441,-0.0113131614 0.622564691,-0.0113131614 0.637943597,0.0339394843 Z" id="Path"></path>
                            <path d="M0.637943597,1.86157401 L0.756252191,2.21095543 L1.13025024,2.21375764 C1.17868774,2.21417499 1.19872875,2.2749292 1.15979711,2.30330899 L0.858939691,2.52211954 L0.971799066,2.87322999 C0.98645141,2.9186615 0.933836176,2.95634223 0.89442016,2.92855865 L0.590172113,2.71445819 L0.285924066,2.92861827 C0.246508051,2.95634223 0.19401391,2.91872112 0.20854516,2.87328961 L0.321404535,2.52217916 L0.020547113,2.30336861 C-0.0183845276,2.27498882 0.00165648803,2.21423461 0.050093988,2.21381726 L0.424092035,2.21101505 L0.542400629,1.86163363 C0.557658441,1.81638098 0.622564691,1.81638098 0.637943597,1.86157401 Z" id="Path"></path>
                            <path d="M0.637943597,3.68926815 L0.756252191,4.03864958 L1.13025024,4.04145178 C1.17868774,4.04186913 1.19872875,4.10262334 1.15979711,4.13100313 L0.858939691,4.34981368 L0.971799066,4.70092413 C0.98645141,4.74635564 0.933836176,4.78403637 0.89442016,4.75625279 L0.590172113,4.54215233 L0.285924066,4.75631242 C0.246508051,4.78403637 0.19401391,4.74647488 0.20854516,4.70098375 L0.321404535,4.3498733 L0.020547113,4.13106275 C-0.0183845276,4.10268296 0.00165648803,4.04192875 0.050093988,4.0415114 L0.424092035,4.0387092 L0.542400629,3.68932777 C0.557658441,3.6440155 0.622564691,3.6440155 0.637943597,3.68926815 Z" id="Path"></path>
                            <path d="M0.637943597,5.51690267 L0.756252191,5.8662841 L1.13025024,5.8690863 C1.17868774,5.86950365 1.19872875,5.93031748 1.15979711,5.95863765 L0.858939691,6.1774482 L0.971799066,6.52855865 C0.98645141,6.57399016 0.933836176,6.61167089 0.89442016,6.58388732 L0.590172113,6.36978685 L0.285924066,6.58394694 C0.246508051,6.61167089 0.19401391,6.57404978 0.20854516,6.52861827 L0.321404535,6.17750783 L0.020547113,5.95869727 C-0.0183845276,5.93043673 0.00165648803,5.86956327 0.050093988,5.86914592 L0.424092035,5.86634372 L0.542400629,5.51696229 C0.557658441,5.47165002 0.622564691,5.47165002 0.637943597,5.51690267 Z" id="Path"></path>
                            <path d="M0.637943597,7.34453719 L0.756252191,7.69391862 L1.13025024,7.69672082 C1.17868774,7.69713817 1.19872875,7.75789238 1.15979711,7.78627217 L0.858939691,8.00508272 L0.971799066,8.35619317 C0.98645141,8.40162468 0.933836176,8.43930541 0.89442016,8.41152184 L0.590172113,8.19742137 L0.285924066,8.41158146 C0.246508051,8.43930541 0.19401391,8.4016843 0.20854516,8.35625279 L0.321404535,8.00514235 L0.020547113,7.78633179 C-0.0183845276,7.757952 0.00165648803,7.69719779 0.050093988,7.69678044 L0.424092035,7.69397824 L0.542400629,7.34459681 C0.557658441,7.29934416 0.622564691,7.29934416 0.637943597,7.34453719 Z" id="Path"></path>
                            <path d="M2.07853539,0.929989566 L2.19684399,1.27937099 L2.57084203,1.2821732 C2.61927953,1.28259055 2.63932055,1.34340438 2.60038891,1.37172455 L2.29953149,1.5905351 L2.41239086,1.94164555 C2.42704321,1.98707706 2.37442797,2.02475779 2.33501196,1.99697421 L2.03076391,1.78281413 L1.72651586,1.99697421 C1.68709985,2.02469817 1.63460571,1.98707706 1.64913696,1.94164555 L1.76199633,1.5905351 L1.46113891,1.37172455 C1.42220727,1.34334476 1.44224828,1.28259055 1.49068578,1.2821732 L1.86468383,1.27937099 L1.98299243,0.929989566 C1.99825024,0.884796542 2.06321703,0.884796542 2.07853539,0.929989566 Z" id="Path"></path>
                            <path d="M2.07853539,2.75768371 L2.19684399,3.10706514 L2.57084203,3.10986734 C2.61927953,3.11028469 2.63932055,3.17109852 2.60038891,3.19941869 L2.29953149,3.41822924 L2.41239086,3.76933969 C2.42704321,3.8147712 2.37442797,3.85245193 2.33501196,3.82466836 L2.03076391,3.61050827 L1.72651586,3.82466836 C1.68709985,3.85239231 1.63460571,3.81483082 1.64913696,3.76933969 L1.76199633,3.41822924 L1.46113891,3.19941869 C1.42220727,3.17115815 1.44224828,3.11028469 1.49068578,3.10986734 L1.86468383,3.10706514 L1.98299243,2.75768371 C1.99825024,2.71243106 2.06321703,2.71243106 2.07853539,2.75768371 Z" id="Path"></path>
                            <path d="M2.07853539,4.58531823 L2.19684399,4.93469966 L2.57084203,4.93750186 C2.61927953,4.93791921 2.63932055,4.99867342 2.60038891,5.02705321 L2.29953149,5.24586377 L2.41239086,5.59697421 C2.42704321,5.64240572 2.37442797,5.68008645 2.33501196,5.65230288 L2.03076391,5.43814279 L1.72651586,5.65230288 C1.68709985,5.68002683 1.63460571,5.64240572 1.64913696,5.59697421 L1.76199633,5.24586377 L1.46113891,5.02705321 C1.42220727,4.99867342 1.44224828,4.93791921 1.49068578,4.93750186 L1.86468383,4.93469966 L1.98299243,4.58531823 C1.99825024,4.54006558 2.06321703,4.54006558 2.07853539,4.58531823 Z" id="Path"></path>
                            <path d="M2.07853539,6.41295275 L2.19684399,6.76233418 L2.57084203,6.76513638 C2.61927953,6.76555373 2.63932055,6.82630794 2.60038891,6.85468773 L2.29953149,7.07349829 L2.41239086,7.42460873 C2.42704321,7.47004024 2.37442797,7.50772097 2.33501196,7.4799374 L2.03076391,7.26577731 L1.72651586,7.4799374 C1.68709985,7.50772097 1.63460571,7.47004024 1.64913696,7.42460873 L1.76199633,7.07349829 L1.46113891,6.85468773 C1.42220727,6.82630794 1.44224828,6.76555373 1.49068578,6.76513638 L1.86468383,6.76233418 L1.98299243,6.41295275 C1.99825024,6.36775973 2.06321703,6.36775973 2.07853539,6.41295275 Z" id="Path"></path>
                            <path d="M3.51912719,0.0339394843 L3.63743578,0.383320912 L4.01143383,0.386123118 C4.05987133,0.386540468 4.07991235,0.4473543 4.04098071,0.475674467 L3.74012328,0.694425399 L3.85298266,1.04553585 C3.867635,1.09096736 3.81501977,1.12864808 3.77560375,1.10086451 L3.47135571,0.886704427 L3.16710766,1.10086451 C3.12769164,1.12864808 3.0751975,1.09096736 3.08972875,1.04553585 L3.20258813,0.694425399 L2.90173071,0.475674467 C2.86279907,0.447294679 2.88284008,0.386480847 2.93127758,0.386123118 L3.30527563,0.383320912 L3.42358422,0.0339394843 C3.43884203,-0.0113131614 3.50380883,-0.0113131614 3.51912719,0.0339394843 Z" id="Path"></path>
                            <path d="M3.51912719,1.86157401 L3.63743578,2.21095543 L4.01143383,2.21375764 C4.05987133,2.21417499 4.07991235,2.2749292 4.04098071,2.30330899 L3.74012328,2.52211954 L3.85298266,2.87322999 C3.867635,2.9186615 3.81501977,2.95634223 3.77560375,2.92855865 L3.47135571,2.71439857 L3.16710766,2.92855865 C3.12769164,2.95628261 3.0751975,2.9186615 3.08972875,2.87322999 L3.20258813,2.52211954 L2.90173071,2.30330899 C2.86279907,2.2749292 2.88284008,2.21417499 2.93127758,2.21375764 L3.30527563,2.21095543 L3.42358422,1.86157401 C3.43884203,1.81638098 3.50380883,1.81638098 3.51912719,1.86157401 Z" id="Path"></path>
                            <path d="M3.51912719,3.68926815 L3.63743578,4.03864958 L4.01143383,4.04145178 C4.05987133,4.04186913 4.07991235,4.10262334 4.04098071,4.13100313 L3.74012328,4.34981368 L3.85298266,4.70092413 C3.867635,4.74635564 3.81501977,4.78403637 3.77560375,4.75625279 L3.47135571,4.54209271 L3.16710766,4.75625279 C3.12769164,4.78397675 3.0751975,4.74641526 3.08972875,4.70092413 L3.20258813,4.34981368 L2.90173071,4.13100313 C2.86279907,4.10262334 2.88284008,4.04186913 2.93127758,4.04145178 L3.30527563,4.03864958 L3.42358422,3.68926815 C3.43884203,3.6440155 3.50380883,3.6440155 3.51912719,3.68926815 Z" id="Path"></path>
                            <path d="M3.51912719,5.51690267 L3.63743578,5.8662841 L4.01143383,5.8690863 C4.05987133,5.86950365 4.07991235,5.93031748 4.04098071,5.95863765 L3.74012328,6.1774482 L3.85298266,6.52855865 C3.867635,6.57399016 3.81501977,6.61167089 3.77560375,6.58388732 L3.47135571,6.36972723 L3.16710766,6.58388732 C3.12769164,6.61161127 3.0751975,6.57399016 3.08972875,6.52855865 L3.20258813,6.1774482 L2.90173071,5.95863765 C2.86279907,5.93037711 2.88284008,5.86950365 2.93127758,5.8690863 L3.30527563,5.8662841 L3.42358422,5.51690267 C3.43884203,5.47165002 3.50380883,5.47165002 3.51912719,5.51690267 Z" id="Path"></path>
                            <path d="M3.51912719,7.34453719 L3.63743578,7.69391862 L4.01143383,7.69672082 C4.05987133,7.69713817 4.07991235,7.75789238 4.04098071,7.78627217 L3.74012328,8.00508272 L3.85298266,8.35619317 C3.867635,8.40162468 3.81501977,8.43930541 3.77560375,8.41152184 L3.47135571,8.19736175 L3.16710766,8.41152184 C3.12769164,8.43924579 3.0751975,8.40162468 3.08972875,8.35619317 L3.20258813,8.00508272 L2.90173071,7.78627217 C2.86279907,7.75789238 2.88284008,7.69713817 2.93127758,7.69672082 L3.30527563,7.69391862 L3.42358422,7.34453719 C3.43884203,7.29934416 3.50380883,7.29934416 3.51912719,7.34453719 Z" id="Path"></path>
                            <path d="M4.95977953,0.929989566 L5.07808813,1.27937099 L5.45208618,1.2821732 C5.50052368,1.28259055 5.52056469,1.34340438 5.48163305,1.37172455 L5.18077563,1.5905351 L5.293635,1.94164555 C5.30828735,1.98707706 5.25567211,2.02475779 5.2162561,1.99697421 L4.91200805,1.78281413 L4.60776,1.99697421 C4.56834399,2.02469817 4.51584985,1.98707706 4.5303811,1.94164555 L4.64324047,1.5905351 L4.34238305,1.37172455 C4.30345141,1.34334476 4.32349243,1.28259055 4.37192993,1.2821732 L4.74592797,1.27937099 L4.86423657,0.929989566 C4.87943383,0.884796542 4.94446118,0.884796542 4.95977953,0.929989566 Z" id="Path"></path>
                            <path d="M4.95977953,2.75768371 L5.07808813,3.10706514 L5.45208618,3.10986734 C5.50052368,3.11028469 5.52056469,3.17109852 5.48163305,3.19941869 L5.18077563,3.41822924 L5.293635,3.76933969 C5.30828735,3.8147712 5.25567211,3.85245193 5.2162561,3.82466836 L4.91200805,3.61050827 L4.60776,3.82466836 C4.56834399,3.85239231 4.51584985,3.81483082 4.5303811,3.76933969 L4.64324047,3.41822924 L4.34238305,3.19941869 C4.30345141,3.17115815 4.32349243,3.11028469 4.37192993,3.10986734 L4.74592797,3.10706514 L4.86423657,2.75768371 C4.87943383,2.71243106 4.94446118,2.71243106 4.95977953,2.75768371 Z" id="Path"></path>
                            <path d="M4.95977953,4.58531823 L5.07808813,4.93469966 L5.45208618,4.93750186 C5.50052368,4.93791921 5.52056469,4.99867342 5.48163305,5.02705321 L5.18077563,5.24586377 L5.293635,5.59697421 C5.30828735,5.64240572 5.25567211,5.68008645 5.2162561,5.65230288 L4.91200805,5.43814279 L4.60776,5.65230288 C4.56834399,5.68002683 4.51584985,5.64240572 4.5303811,5.59697421 L4.64324047,5.24586377 L4.34238305,5.02705321 C4.30345141,4.99867342 4.32349243,4.93791921 4.37192993,4.93750186 L4.74592797,4.93469966 L4.86423657,4.58531823 C4.87943383,4.54006558 4.94446118,4.54006558 4.95977953,4.58531823 Z" id="Path"></path>
                            <path d="M4.95977953,6.41295275 L5.07808813,6.76233418 L5.45208618,6.76513638 C5.50052368,6.76555373 5.52056469,6.82630794 5.48163305,6.85468773 L5.18077563,7.07349829 L5.293635,7.42460873 C5.30828735,7.47004024 5.25567211,7.50772097 5.2162561,7.4799374 L4.91200805,7.26577731 L4.60776,7.4799374 C4.56834399,7.50772097 4.51584985,7.47004024 4.5303811,7.42460873 L4.64324047,7.07349829 L4.34238305,6.85468773 C4.30345141,6.82630794 4.32349243,6.76555373 4.37192993,6.76513638 L4.74592797,6.76233418 L4.86423657,6.41295275 C4.87943383,6.36775973 4.94446118,6.36775973 4.95977953,6.41295275 Z" id="Path"></path>
                            <path d="M6.40037133,0.0339394843 L6.51867993,0.383320912 L6.89267797,0.386123118 C6.94111547,0.386540468 6.96115649,0.4473543 6.92222485,0.475674467 L6.62136743,0.694425399 L6.7342268,1.04553585 C6.74887914,1.09096736 6.69626391,1.12864808 6.65684789,1.10086451 L6.3525393,0.886764048 L6.04829125,1.10092413 C6.00887524,1.12870771 5.9563811,1.09102698 5.97091235,1.04559547 L6.08377172,0.69448502 L5.7829143,0.475734089 C5.74398266,0.4473543 5.76402368,0.386540468 5.81246118,0.38618274 L6.18645922,0.383380534 L6.30476782,0.0339991057 C6.32008618,-0.0113131614 6.38505297,-0.0113131614 6.40037133,0.0339394843 Z" id="Path"></path>
                            <path d="M6.40037133,1.86157401 L6.51867993,2.21095543 L6.89267797,2.21375764 C6.94111547,2.21417499 6.96115649,2.2749292 6.92222485,2.30330899 L6.62136743,2.52211954 L6.7342268,2.87322999 C6.74887914,2.9186615 6.69626391,2.95634223 6.65684789,2.92855865 L6.3525393,2.71439857 L6.04829125,2.92855865 C6.00887524,2.95628261 5.9563811,2.9186615 5.97091235,2.87322999 L6.08377172,2.52211954 L5.7829143,2.30330899 C5.74398266,2.2749292 5.76402368,2.21417499 5.81246118,2.21375764 L6.18645922,2.21095543 L6.30476782,1.86157401 C6.32008618,1.81638098 6.38505297,1.81638098 6.40037133,1.86157401 Z" id="Path"></path>
                            <path d="M6.40037133,3.68926815 L6.51867993,4.03864958 L6.89267797,4.04145178 C6.94111547,4.04186913 6.96115649,4.10262334 6.92222485,4.13100313 L6.62136743,4.34981368 L6.7342268,4.70092413 C6.74887914,4.74635564 6.69626391,4.78403637 6.65684789,4.75625279 L6.3525393,4.54203309 L6.04829125,4.75619317 C6.00887524,4.78391713 5.9563811,4.74629602 5.97091235,4.70086451 L6.08377172,4.34975406 L5.7829143,4.13094351 C5.74398266,4.10256372 5.76402368,4.04180951 5.81246118,4.04139216 L6.18645922,4.03858995 L6.30476782,3.68920853 C6.32008618,3.6440155 6.38505297,3.6440155 6.40037133,3.68926815 Z" id="Path"></path>
                            <path d="M6.40037133,5.51690267 L6.51867993,5.8662841 L6.89267797,5.8690863 C6.94111547,5.86950365 6.96115649,5.93031748 6.92222485,5.95863765 L6.62136743,6.1774482 L6.7342268,6.52855865 C6.74887914,6.57399016 6.69626391,6.61167089 6.65684789,6.58388732 L6.3525393,6.36972723 L6.04829125,6.58388732 C6.00887524,6.61161127 5.9563811,6.57399016 5.97091235,6.52855865 L6.08377172,6.1774482 L5.7829143,5.95863765 C5.74398266,5.93037711 5.76402368,5.86950365 5.81246118,5.8690863 L6.18645922,5.8662841 L6.30476782,5.51690267 C6.32008618,5.47165002 6.38505297,5.47165002 6.40037133,5.51690267 Z" id="Path"></path>
                            <path d="M6.40037133,7.34453719 L6.51867993,7.69391862 L6.89267797,7.69672082 C6.94111547,7.69713817 6.96115649,7.75789238 6.92222485,7.78627217 L6.62136743,8.00508272 L6.7342268,8.35619317 C6.74887914,8.40162468 6.69626391,8.43930541 6.65684789,8.41152184 L6.3525393,8.19736175 L6.04829125,8.41152184 C6.00887524,8.43924579 5.9563811,8.40162468 5.97091235,8.35619317 L6.08377172,8.00508272 L5.7829143,7.78627217 C5.74398266,7.75789238 5.76402368,7.69713817 5.81246118,7.69672082 L6.18645922,7.69391862 L6.30476782,7.34453719 C6.32008618,7.29934416 6.38505297,7.29934416 6.40037133,7.34453719 Z" id="Path"></path>
                            <path d="M7.84096313,0.929989566 L7.95927172,1.27937099 L8.33326977,1.2821732 C8.38170727,1.28259055 8.40174828,1.34340438 8.36281664,1.37172455 L8.06195922,1.5905351 L8.1748186,1.94164555 C8.18947094,1.98707706 8.13685571,2.02475779 8.09743969,1.99697421 L7.79319164,1.78281413 L7.4889436,1.99697421 C7.44952758,2.02469817 7.39703344,1.98707706 7.41156469,1.94164555 L7.52442407,1.5905351 L7.22356664,1.37172455 C7.184635,1.34334476 7.20467602,1.28259055 7.25311352,1.2821732 L7.62711157,1.27937099 L7.74542016,0.929989566 C7.76073852,0.884796542 7.82564477,0.884796542 7.84096313,0.929989566 Z" id="Path"></path>
                            <path d="M7.84096313,2.75768371 L7.95927172,3.10706514 L8.33326977,3.10986734 C8.38170727,3.11028469 8.40174828,3.17109852 8.36281664,3.19941869 L8.06195922,3.41822924 L8.1748186,3.76933969 C8.18947094,3.8147712 8.13685571,3.85245193 8.09743969,3.82466836 L7.79319164,3.61050827 L7.4889436,3.82466836 C7.44952758,3.85239231 7.39703344,3.81483082 7.41156469,3.76933969 L7.52442407,3.41822924 L7.22356664,3.19941869 C7.184635,3.17115815 7.20467602,3.11028469 7.25311352,3.10986734 L7.62711157,3.10706514 L7.74542016,2.75768371 C7.76073852,2.71243106 7.82564477,2.71243106 7.84096313,2.75768371 Z" id="Path"></path>
                            <path d="M7.84096313,4.58531823 L7.95927172,4.93469966 L8.33326977,4.93750186 C8.38170727,4.93791921 8.40174828,4.99867342 8.36281664,5.02705321 L8.06195922,5.24586377 L8.1748186,5.59697421 C8.18947094,5.64240572 8.13685571,5.68008645 8.09743969,5.65230288 L7.79319164,5.43814279 L7.4889436,5.65230288 C7.44952758,5.68002683 7.39703344,5.64240572 7.41156469,5.59697421 L7.52442407,5.24586377 L7.22356664,5.02705321 C7.184635,4.99867342 7.20467602,4.93791921 7.25311352,4.93750186 L7.62711157,4.93469966 L7.74542016,4.58531823 C7.76073852,4.54006558 7.82564477,4.54006558 7.84096313,4.58531823 Z" id="Path"></path>
                            <path d="M7.84096313,6.41295275 L7.95927172,6.76233418 L8.33326977,6.76513638 C8.38170727,6.76555373 8.40174828,6.82630794 8.36281664,6.85468773 L8.06195922,7.07349829 L8.1748186,7.42460873 C8.18947094,7.47004024 8.13685571,7.50772097 8.09743969,7.4799374 L7.79319164,7.26577731 L7.4889436,7.4799374 C7.44952758,7.50772097 7.39703344,7.47004024 7.41156469,7.42460873 L7.52442407,7.07349829 L7.22356664,6.85468773 C7.184635,6.82630794 7.20467602,6.76555373 7.25311352,6.76513638 L7.62711157,6.76233418 L7.74542016,6.41295275 C7.76073852,6.36775973 7.82564477,6.36775973 7.84096313,6.41295275 Z" id="Path"></path>
                            <path d="M9.28161547,0.0339394843 L9.39992407,0.383320912 L9.77392211,0.386123118 C9.82235961,0.386540468 9.84240063,0.4473543 9.80346899,0.475674467 L9.50261157,0.694425399 L9.61547094,1.04553585 C9.63012328,1.09096736 9.57750805,1.12864808 9.53809203,1.10086451 L9.23384399,0.886704427 L8.92959594,1.10086451 C8.89017993,1.12864808 8.83768578,1.09096736 8.85221703,1.04553585 L8.96507641,0.694425399 L8.66421899,0.475674467 C8.62528735,0.447294679 8.64532836,0.386480847 8.69376586,0.386123118 L9.06776391,0.383320912 L9.1860725,0.0339394843 C9.20126977,-0.0113131614 9.26629711,-0.0113131614 9.28161547,0.0339394843 Z" id="Path"></path>
                            <path d="M9.28161547,1.86157401 L9.39992407,2.21095543 L9.77392211,2.21375764 C9.82235961,2.21417499 9.84240063,2.2749292 9.80346899,2.30330899 L9.50261157,2.52211954 L9.61547094,2.87322999 C9.63012328,2.9186615 9.57750805,2.95634223 9.53809203,2.92855865 L9.23384399,2.71439857 L8.92959594,2.92855865 C8.89017993,2.95628261 8.83768578,2.9186615 8.85221703,2.87322999 L8.96507641,2.52211954 L8.66421899,2.30330899 C8.62528735,2.2749292 8.64532836,2.21417499 8.69376586,2.21375764 L9.06776391,2.21095543 L9.1860725,1.86157401 C9.20126977,1.81638098 9.26629711,1.81638098 9.28161547,1.86157401 Z" id="Path"></path>
                            <path d="M9.28161547,3.68926815 L9.39992407,4.03864958 L9.77392211,4.04145178 C9.82235961,4.04186913 9.84240063,4.10262334 9.80346899,4.13100313 L9.50261157,4.34981368 L9.61547094,4.70092413 C9.63012328,4.74635564 9.57750805,4.78403637 9.53809203,4.75625279 L9.23384399,4.54209271 L8.92959594,4.75625279 C8.89017993,4.78397675 8.83768578,4.74641526 8.85221703,4.70092413 L8.96507641,4.34981368 L8.66421899,4.13100313 C8.62528735,4.10262334 8.64532836,4.04186913 8.69376586,4.04145178 L9.06776391,4.03864958 L9.1860725,3.68926815 C9.20126977,3.6440155 9.26629711,3.6440155 9.28161547,3.68926815 Z" id="Path"></path>
                            <path d="M9.28161547,5.51690267 L9.39992407,5.8662841 L9.77392211,5.8690863 C9.82235961,5.86950365 9.84240063,5.93031748 9.80346899,5.95863765 L9.50261157,6.1774482 L9.61547094,6.52855865 C9.63012328,6.57399016 9.57750805,6.61167089 9.53809203,6.58388732 L9.23384399,6.36972723 L8.92959594,6.58388732 C8.89017993,6.61161127 8.83768578,6.57399016 8.85221703,6.52855865 L8.96507641,6.1774482 L8.66421899,5.95863765 C8.62528735,5.93037711 8.64532836,5.86950365 8.69376586,5.8690863 L9.06776391,5.8662841 L9.1860725,5.51690267 C9.20126977,5.47165002 9.26629711,5.47165002 9.28161547,5.51690267 Z" id="Path"></path>
                            <path d="M9.28161547,7.34453719 L9.39992407,7.69391862 L9.77392211,7.69672082 C9.82235961,7.69713817 9.84240063,7.75789238 9.80346899,7.78627217 L9.50261157,8.00508272 L9.61547094,8.35619317 C9.63012328,8.40162468 9.57750805,8.43930541 9.53809203,8.41152184 L9.23384399,8.19736175 L8.92959594,8.41152184 C8.89017993,8.43924579 8.83768578,8.40162468 8.85221703,8.35619317 L8.96507641,8.00508272 L8.66421899,7.78627217 C8.62528735,7.75789238 8.64532836,7.69713817 8.69376586,7.69672082 L9.06776391,7.69391862 L9.1860725,7.34453719 C9.20126977,7.29934416 9.26629711,7.29934416 9.28161547,7.34453719 Z" id="Path"></path>
                            <path d="M10.7222073,0.929989566 L10.8405159,1.27937099 L11.2145139,1.2821732 C11.2629514,1.28259055 11.2829924,1.34340438 11.2440608,1.37172455 L10.9432034,1.5905351 L11.0560627,1.94164555 C11.0707151,1.98707706 11.0180998,2.02475779 10.9786838,1.99697421 L10.6744358,1.78281413 L10.3701877,1.99697421 C10.3307717,2.02469817 10.2782776,1.98707706 10.2928088,1.94164555 L10.4056682,1.5905351 L10.1048108,1.37172455 C10.0658791,1.34334476 10.0859202,1.28259055 10.1343577,1.2821732 L10.5083557,1.27937099 L10.6266643,0.929989566 C10.6419221,0.884796542 10.7068889,0.884796542 10.7222073,0.929989566 Z" id="Path"></path>
                            <path d="M10.7222073,2.75768371 L10.8405159,3.10706514 L11.2145139,3.10986734 C11.2629514,3.11028469 11.2829924,3.17109852 11.2440608,3.19941869 L10.9432034,3.41822924 L11.0560627,3.76933969 C11.0707151,3.8147712 11.0180998,3.85245193 10.9786838,3.82466836 L10.6744358,3.61050827 L10.3701877,3.82466836 C10.3307717,3.85239231 10.2782776,3.81483082 10.2928088,3.76933969 L10.4056682,3.41822924 L10.1048108,3.19941869 C10.0658791,3.17115815 10.0859202,3.11028469 10.1343577,3.10986734 L10.5083557,3.10706514 L10.6266643,2.75768371 C10.6419221,2.71243106 10.7068889,2.71243106 10.7222073,2.75768371 Z" id="Path"></path>
                            <path d="M10.7222073,4.58531823 L10.8405159,4.93469966 L11.2145139,4.93750186 C11.2629514,4.93791921 11.2829924,4.99867342 11.2440608,5.02705321 L10.9432034,5.24586377 L11.0560627,5.59697421 C11.0707151,5.64240572 11.0180998,5.68008645 10.9786838,5.65230288 L10.6744358,5.43814279 L10.3701877,5.65230288 C10.3307717,5.68002683 10.2782776,5.64240572 10.2928088,5.59697421 L10.4056682,5.24586377 L10.1048108,5.02705321 C10.0658791,4.99867342 10.0859202,4.93791921 10.1343577,4.93750186 L10.5083557,4.93469966 L10.6266643,4.58531823 C10.6419221,4.54006558 10.7068889,4.54006558 10.7222073,4.58531823 Z" id="Path"></path>
                            <path d="M10.7222073,6.41295275 L10.8405159,6.76233418 L11.2145139,6.76513638 C11.2629514,6.76555373 11.2829924,6.82630794 11.2440608,6.85468773 L10.9432034,7.07349829 L11.0560627,7.42460873 C11.0707151,7.47004024 11.0180998,7.50772097 10.9786838,7.4799374 L10.6744358,7.26577731 L10.3701877,7.4799374 C10.3307717,7.50772097 10.2782776,7.47004024 10.2928088,7.42460873 L10.4056682,7.07349829 L10.1048108,6.85468773 C10.0658791,6.82630794 10.0859202,6.76555373 10.1343577,6.76513638 L10.5083557,6.76233418 L10.6266643,6.41295275 C10.6419221,6.36775973 10.7068889,6.36775973 10.7222073,6.41295275 Z" id="Path"></path>
                            <path d="M12.1628596,0.0339394843 L12.2811682,0.383320912 L12.6551663,0.386123118 C12.7036038,0.386540468 12.7236448,0.4473543 12.6847131,0.475674467 L12.3838557,0.694425399 L12.4967151,1.04553585 C12.5113674,1.09096736 12.4587522,1.12864808 12.4193362,1.10086451 L12.1150881,0.886704427 L11.8108401,1.10086451 C11.7714241,1.12864808 11.7189299,1.09096736 11.7334612,1.04553585 L11.8463206,0.694425399 L11.5454631,0.475674467 C11.5065315,0.447294679 11.5265725,0.386480847 11.57501,0.386123118 L11.9490081,0.383320912 L12.0673166,0.0339394843 C12.0825745,-0.0113131614 12.1474807,-0.0113131614 12.1628596,0.0339394843 Z" id="Path"></path>
                            <path d="M12.1628596,1.86157401 L12.2811682,2.21095543 L12.6551663,2.21375764 C12.7036038,2.21417499 12.7236448,2.2749292 12.6847131,2.30330899 L12.3838557,2.52211954 L12.4967151,2.87322999 C12.5113674,2.9186615 12.4587522,2.95634223 12.4193362,2.92855865 L12.1150881,2.71439857 L11.8108401,2.92855865 C11.7714241,2.95628261 11.7189299,2.9186615 11.7334612,2.87322999 L11.8463206,2.52211954 L11.5454631,2.30330899 C11.5065315,2.2749292 11.5265725,2.21417499 11.57501,2.21375764 L11.9490081,2.21095543 L12.0673166,1.86157401 C12.0825745,1.81638098 12.1474807,1.81638098 12.1628596,1.86157401 Z" id="Path"></path>
                            <path d="M12.1628596,3.68926815 L12.2811682,4.03864958 L12.6551663,4.04145178 C12.7036038,4.04186913 12.7236448,4.10262334 12.6847131,4.13100313 L12.3838557,4.34981368 L12.4967151,4.70092413 C12.5113674,4.74635564 12.4587522,4.78403637 12.4193362,4.75625279 L12.1150881,4.54209271 L11.8108401,4.75625279 C11.7714241,4.78397675 11.7189299,4.74641526 11.7334612,4.70092413 L11.8463206,4.34981368 L11.5454631,4.13100313 C11.5065315,4.10262334 11.5265725,4.04186913 11.57501,4.04145178 L11.9490081,4.03864958 L12.0673166,3.68926815 C12.0825745,3.6440155 12.1474807,3.6440155 12.1628596,3.68926815 Z" id="Path"></path>
                            <path d="M12.1628596,5.51690267 L12.2811682,5.8662841 L12.6551663,5.8690863 C12.7036038,5.86950365 12.7236448,5.93031748 12.6847131,5.95863765 L12.3838557,6.1774482 L12.4967151,6.52855865 C12.5113674,6.57399016 12.4587522,6.61167089 12.4193362,6.58388732 L12.1150881,6.36972723 L11.8108401,6.58388732 C11.7714241,6.61161127 11.7189299,6.57399016 11.7334612,6.52855865 L11.8463206,6.1774482 L11.5454631,5.95863765 C11.5065315,5.93037711 11.5265725,5.86950365 11.57501,5.8690863 L11.9490081,5.8662841 L12.0673166,5.51690267 C12.0825745,5.47165002 12.1474807,5.47165002 12.1628596,5.51690267 Z" id="Path"></path>
                            <path d="M12.1628596,7.34453719 L12.2811682,7.69391862 L12.6551663,7.69672082 C12.7036038,7.69713817 12.7236448,7.75789238 12.6847131,7.78627217 L12.3838557,8.00508272 L12.4967151,8.35619317 C12.5113674,8.40162468 12.4587522,8.43930541 12.4193362,8.41152184 L12.1150881,8.19736175 L11.8108401,8.41152184 C11.7714241,8.43924579 11.7189299,8.40162468 11.7334612,8.35619317 L11.8463206,8.00508272 L11.5454631,7.78627217 C11.5065315,7.75789238 11.5265725,7.69713817 11.57501,7.69672082 L11.9490081,7.69391862 L12.0673166,7.34453719 C12.0825745,7.29934416 12.1474807,7.29934416 12.1628596,7.34453719 Z" id="Path"></path>
                        </g>
                    </g>
                </g>
            </g>
        </g>
    </g>
</svg>