<?xml version="1.0" encoding="UTF-8"?>
<svg width="12px" height="20px" viewBox="0 0 12 20" version="1.1" xmlns="http://www.w3.org/2000/svg" xmlns:xlink="http://www.w3.org/1999/xlink">
    <!-- Generator: Sketch 52.2 (67145) - http://www.bohemiancoding.com/sketch -->
    <title>facebook_icon</title>
    <desc>Created with Sketch.</desc>
    <g id="iOS/Android-вместе" stroke="none" stroke-width="1" fill="none" fill-rule="evenodd">
        <g id="main_1.1" transform="translate(-669.000000, -6604.000000)" fill="#1A3F5E">
            <g id="footer" transform="translate(0.000000, 6586.000000)">
                <g id="Group-19">
                    <g id="Group-9">
                        <g id="Group-2">
                            <g id="footer">
                                <g id="Group-27" transform="translate(665.000000, 18.000000)">
                                    <g id="facebook_icon">
                                        <g id="Group-23" transform="translate(4.750000, 0.375000)">
                                            <path d="M10.1046008,0.0040052849 L7.58612827,0 C4.75671073,0 2.92821682,1.85945351 2.92821682,4.73745097 L2.92821682,6.92173309 L0.396005311,6.92173309 C0.177192172,6.92173309 0,7.0975651 0,7.31445128 L0,10.4792271 C0,10.6961133 0.177394216,10.8717451 0.396005311,10.8717451 L2.92821682,10.8717451 L2.92821682,18.8574821 C2.92821682,19.0743683 3.10540899,19.25 3.32422213,19.25 L6.62803787,19.25 C6.84685101,19.25 7.02404318,19.074168 7.02404318,18.8574821 L7.02404318,10.8717451 L9.98478901,10.8717451 C10.2036021,10.8717451 10.3807943,10.6961133 10.3807943,10.4792271 L10.3820066,7.31445128 C10.3820066,7.21031387 10.3401836,7.11058227 10.2660336,7.03688503 C10.1918836,6.96318779 10.0908619,6.92173309 9.98579923,6.92173309 L7.02404318,6.92173309 L7.02404318,5.07008988 C7.02404318,4.18011558 7.23800727,3.72831944 8.40763725,3.72831944 L10.1041967,3.72771865 C10.3228078,3.72771865 10.5,3.55188665 10.5,3.33520073 L10.5,0.396523205 C10.5,0.180037556 10.3230099,0.00440581338 10.1046008,0.0040052849 Z" id="Path"></path>
                                        </g>
                                    </g>
                                </g>
                            </g>
                        </g>
                    </g>
                </g>
            </g>
        </g>
    </g>
</svg>