<?xml version="1.0" encoding="UTF-8"?>
<svg viewBox="0 0 177 48" version="1.1" xmlns="http://www.w3.org/2000/svg" xmlns:xlink="http://www.w3.org/1999/xlink">
    <!-- Generator: Sketch 52.2 (67145) - http://www.bohemiancoding.com/sketch -->
    <title>2Asset 1as2sdвфfssad</title>
    <desc>Created with Sketch.</desc>
    <g id="iOS/Android-вместе" stroke="none" stroke-width="1" fill="none" fill-rule="evenodd">
        <g id="main_1.2" transform="translate(-165.000000, -25.000000)" fill="#1088EC" fill-rule="nonzero">
            <g id="header">
                <g id="2Asset-1as2sdвфfssad" transform="translate(165.000000, 25.000000)">
                    <g id="Group" transform="translate(66.000000, 14.000000)">
                        <path d="M1.83538928,18.1252727 C1.28526378,18.1254208 0.764097612,17.8787298 0.415479915,17.4531669 C0.0668622188,17.027604 -0.0724194103,16.4680763 0.0360092188,15.9287422 L2.82049995,2.15716135 C3.057273,0.979063672 4.04807299,0.101795193 5.24617366,0.0094351496 C6.44427434,-0.0829248941 7.55782388,0.63212198 7.97236247,1.76001088 L10.4506702,8.49825657 L12.9400714,1.75779216 C13.355001,0.629922678 14.4689407,-0.0847935592 15.6671181,0.00808840812 C16.8652954,0.100970375 17.8557804,0.978820311 18.091934,2.15716135 L20.8542375,15.9287422 C21.0137269,16.5826496 20.8023935,17.2713927 20.3035934,17.7233111 C19.8047933,18.1752295 19.0985998,18.317776 18.4635561,18.094726 C17.8285124,17.8716761 17.3665632,17.3188363 17.2599148,16.6542629 L15.1721014,6.28175757 L12.1701764,14.4355452 C11.9038953,15.155157 11.2179683,15.6330932 10.4506702,15.6336527 C9.68280616,15.6327498 8.99671268,15.1538122 8.73116393,14.4333264 L5.72702015,6.28175757 L3.63033191,16.6542629 C3.45744965,17.5087476 2.70718609,18.1236113 1.83538928,18.1252727 Z" id="Path"></path>
                        <path d="M34.4549771,3.88776116 C33.591645,3.8752421 32.8653212,4.53183887 32.7909388,5.39205177 C31.629424,4.49161598 30.2025577,4.00091126 28.7329041,3.99647833 C24.9453041,3.99647833 21.8748477,7.06693479 21.8748477,10.8545348 C21.8748477,14.6421348 24.9453041,17.7125912 28.7329041,17.7125912 C30.2003779,17.721291 31.6267356,17.2280938 32.7754078,16.3147991 C32.8220008,17.2910349 33.5120221,17.9877122 34.4527584,17.9877122 C35.4443515,17.9975897 36.2575013,17.2042728 36.2721069,16.2127381 L36.2721069,5.66717277 C36.2599218,4.674771 35.4474161,3.87913053 34.4549771,3.88776116 Z M31.9966379,10.8700658 C32.0146458,12.2006071 31.226293,13.4099401 30.0016352,13.9303992 C28.7769774,14.4508584 27.3591855,14.1791001 26.4137764,13.2426888 C25.4683673,12.3062775 25.1830636,10.8911492 25.691788,9.66157037 C26.2005125,8.43199158 27.4022514,7.63211042 28.7329041,7.6373941 C29.5954786,7.63030244 30.4252572,7.96754038 31.0383258,8.5743616 C31.6513943,9.18118283 31.9971133,10.0074639 31.9988566,10.8700658 L31.9966379,10.8700658 Z" id="Shape"></path>
                        <path d="M46.0921515,3.83451194 C44.7206047,3.83097736 43.3760465,4.21557639 42.2138329,4.94387079 C41.8855274,4.30378912 41.2291954,3.89870922 40.5098577,3.8921986 C39.4712125,3.88110118 38.6195965,4.71286594 38.6061979,5.75148404 L38.6061979,21.7107205 C38.6550118,22.7167489 39.4848961,23.5073423 40.492108,23.5073423 C41.4993199,23.5073423 42.3292041,22.7167489 42.378018,21.7107205 L42.378018,17.1845364 C43.5067338,17.8322958 44.7841318,18.1762988 46.0854953,18.1829594 C50.0483224,18.1829594 53.2608284,14.9704533 53.2608284,11.0076263 C53.2608284,7.04479927 50.0483224,3.83229322 46.0854953,3.83229322 L46.0921515,3.83451194 Z M49.5489137,11.009845 C49.5633049,12.4111155 48.7302775,13.6824307 47.4397802,14.228675 C46.1492829,14.7749192 44.6566831,14.4880002 43.6606819,13.5022275 C42.6646807,12.5164548 42.3623699,11.0268962 42.8952641,9.73082912 C43.4281584,8.43476206 44.6908071,7.5886562 46.0921515,7.58858231 C47.9891164,7.5824183 49.5342658,9.11070796 49.5489137,11.0076263 L49.5489137,11.009845 Z" id="Shape"></path>
                        <path d="M61.9160462,9.09952907 L67.9997702,3.27761379 C68.3438758,2.92199533 68.531411,2.4434933 68.5205745,1.94876537 C68.509738,1.45403744 68.3014305,0.984205938 67.9420835,0.643995869 C67.6040167,0.309053416 67.146646,0.12227376 66.6707583,0.124815924 L66.6507898,0.124815924 C66.1533208,0.127553754 65.6777495,0.329771427 65.3306528,0.686151505 L59.4133326,6.29950732 L59.4133326,1.98410137 C59.3787079,0.981628772 58.5560082,0.186853892 57.5529378,0.186853892 C56.5498674,0.186853892 55.7271677,0.981628772 55.692543,1.98410137 L55.692543,16.2415814 C55.7271677,17.244054 56.5498674,18.0388289 57.5529378,18.0388289 C58.5560082,18.0388289 59.3787079,17.244054 59.4133326,16.2415814 L59.4133326,11.9195193 L65.4038704,17.5994366 C65.7515552,17.8949149 66.1922978,18.0583275 66.6485711,18.0609299 C67.1593047,18.0656307 67.6495874,17.8605197 68.0048265,17.4935372 C68.3600655,17.1265547 68.5491281,16.6298627 68.527825,16.1195519 C68.5016879,15.6204834 68.2723893,15.1538689 67.8932717,14.8282582 L61.9160462,9.09952907 Z" id="Path"></path>
                        <path d="M91.2874313,3.88776116 C90.4240992,3.8752421 89.6977753,4.53183887 89.623393,5.39205177 C88.4618782,4.49161598 87.0350118,4.00091126 85.5653583,3.99647833 C81.7777583,3.99647833 78.7073018,7.06693479 78.7073018,10.8545348 C78.7073018,14.6421348 81.7777583,17.7125912 85.5653583,17.7125912 C87.0328321,17.721291 88.4591898,17.2280938 89.607862,16.3147991 C89.654455,17.2910349 90.3444762,17.9877122 91.2852125,17.9877122 C92.2768056,17.9975897 93.0899555,17.2042728 93.1045611,16.2127381 L93.1045611,5.66717277 C93.092376,4.674771 92.2798703,3.87913053 91.2874313,3.88776116 Z M88.829092,10.8700658 C88.8471,12.2006071 88.0587472,13.4099401 86.8340894,13.9303992 C85.6094315,14.4508584 84.1916397,14.1791001 83.2462306,13.2426888 C82.3008215,12.3062775 82.0155178,10.8911492 82.5242422,9.66157037 C83.0329666,8.43199158 84.2347056,7.63211042 85.5653583,7.6373941 C86.4275499,7.63089618 87.2567564,7.96839674 87.8693434,8.57515349 C88.4819303,9.18191024 88.8273448,10.0078515 88.829092,10.8700658 Z" id="Shape"></path>
                        <path d="M102.924606,3.83451194 C101.553796,3.83127526 100.210031,4.2158674 99.0485058,4.94387079 C98.7202003,4.30378912 98.0638683,3.89870922 97.3445306,3.8921986 C96.3067476,3.88233278 95.4564892,4.71374066 95.4430895,5.75148404 L95.4430895,21.7107205 C95.4919034,22.7167489 96.3217877,23.5073423 97.3289996,23.5073423 C98.3362115,23.5073423 99.1660958,22.7167489 99.2149096,21.7107205 L99.2149096,17.1845364 C100.343625,17.8322958 101.621023,18.1762988 102.922387,18.1829594 C106.885214,18.1829594 110.09772,14.9704533 110.09772,11.0076263 C110.09772,7.04479927 106.885214,3.83229322 102.922387,3.83229322 L102.924606,3.83451194 Z M106.381368,11.009845 C106.395759,12.4111155 105.562732,13.6824307 104.272234,14.228675 C102.981737,14.7749192 101.489137,14.4880002 100.493136,13.5022275 C99.4971349,12.5164548 99.1948241,11.0268962 99.7277183,9.73082912 C100.260613,8.43476206 101.523261,7.5886562 102.924606,7.58858231 C104.821571,7.5824183 106.36672,9.11070796 106.381368,11.0076263 L106.381368,11.009845 Z" id="Shape"></path>
                        <path d="M75.5256606,14.3201718 L74.6381736,14.3201718 L74.6381736,2.04178803 C74.6547425,1.05885831 73.9275195,0.221594982 72.9519481,0.10041003 C72.4263831,0.0484113599 71.9033304,0.221028465 71.5119528,0.575635197 C71.1205751,0.93024193 70.8973554,1.43378316 70.8974155,1.96191419 L70.8974155,13.674525 C70.8974155,16.0933934 72.8582958,18.0542738 75.2771643,18.0542738 L75.5966596,18.0542738 C76.1247906,18.0543339 76.6283319,17.8311141 76.9829386,17.4397365 C77.3375453,17.0483588 77.5101624,16.5253061 77.4581638,15.9997412 C77.3332894,15.03074 76.5026085,14.308782 75.5256606,14.3201718 Z" id="Path"></path>
                    </g>
                    <g id="Shape-2" transform="translate(0.000000, 0.000000)">
                        <path d="M55.1116872,34.6638331 L41.7407177,4.10808105 C40.667864,1.59585297 38.2111412,-0.0223787166 35.5047413,0.00047286988 L35.4361722,0.00047286988 C32.7041157,0.00139574875 30.2434456,1.67138059 29.2078146,4.22747707 L28.0249981,7.07372409 L27.8821458,7.07372409 C25.6407588,7.24742422 23.8047697,8.94282732 23.4310407,11.1839975 C23.0573117,13.4251678 24.2419986,15.6354803 26.3031524,16.5425987 L26.3488652,16.5657076 L26.400292,16.584965 C28.5152902,17.4666224 30.9522171,16.7489483 32.2681149,14.8568934 C33.5840127,12.9648385 33.4276165,10.4034665 31.891532,8.68942183 L33.0686344,5.856655 C33.4757927,4.87615598 34.4208202,4.23451213 35.4725612,4.22446462 C36.5243023,4.2144171 37.481153,4.83789188 37.9065636,5.81043719 L51.2775331,36.3700407 C51.9671502,37.9480581 51.8215189,39.771517 50.8904112,41.2172183 C49.9593035,42.6629195 48.3687887,43.5351191 46.6624534,43.5357275 C44.663881,43.5352809 42.8536432,42.3430579 42.0454691,40.4949806 L36.5047069,27.8139679 C35.8128075,26.1940894 34.22903,25.1503388 32.4838926,25.1641466 C30.7350972,25.1529672 29.150303,26.20346 28.4630783,27.8293739 C28.4372502,27.9116937 28.3575028,27.9641022 28.2726086,27.9545471 C28.1882443,27.9643309 28.1086871,27.9128517 28.082139,27.8312996 L25.1279547,21.1085335 C23.509747,17.4256698 19.8953213,15.0543911 15.909446,15.0606423 C11.9235707,15.0668935 8.3164386,17.4494979 6.70953944,21.1374196 L0.785933294,34.7331598 C-1.26533951,39.4293004 0.837144421,44.9175336 5.48196262,46.9914718 C10.1267808,49.06541 15.5550352,46.939695 17.6063082,42.2435545 L18.5986551,39.9750301 L19.9700365,41.3615646 C20.4328778,41.8295199 21.2499926,41.746713 21.5414112,41.1689903 C21.6341087,40.9808146 21.6667205,40.7681779 21.6347413,40.5604558 L20.381451,32.1064474 C20.3277014,31.7424044 20.085268,31.4353298 19.7460713,31.301653 C19.4068746,31.1679762 19.0228498,31.2281649 18.7396026,31.459398 L12.0731648,36.9034713 C11.8691374,37.0678445 11.7365716,37.3061979 11.7036537,37.5678524 C11.6815536,37.8587845 11.7865512,38.1449138 11.9909883,38.3508689 C12.1954254,38.5568241 12.4788029,38.6619538 12.7664743,38.638565 L14.6540286,38.5287977 L13.7759635,40.5373469 C12.9758494,42.3676036 11.1838835,43.549026 9.20469187,43.5511335 C7.51587745,43.548899 5.9422181,42.6851725 5.02037551,41.254509 C4.09853293,39.8238454 3.95300479,38.0194602 4.63342024,36.4566991 L10.5570264,22.8609589 C11.4952646,20.7077921 13.6012548,19.3167026 15.9284044,19.312952 C18.255554,19.3092014 20.36592,20.6934956 21.3109429,22.8436272 L24.2651272,29.5663934 C24.9593947,31.1812044 26.5406531,32.2204929 28.2821321,32.206586 L28.2859415,32.206586 C30.0326639,32.215434 31.6146238,31.1653275 32.3010417,29.5413587 C32.3268699,29.459039 32.4066173,29.4066304 32.4915114,29.4161855 C32.5764055,29.4066304 32.6561529,29.459039 32.681981,29.5413587 L38.2227432,42.2223713 C39.5028858,45.3592168 42.3650807,47.5472781 45.6990692,47.9377963 C49.0330576,48.3283145 52.3142409,46.8598421 54.2698329,44.1020061 C56.2254249,41.3441702 56.5477157,37.7309128 55.1116872,34.6638331 Z M28.402128,13.8658169 C27.6592112,13.9243832 26.9545876,13.5245841 26.6169831,12.8529367 C26.2793787,12.1812894 26.3753192,11.3701438 26.8600459,10.7979213 C27.3447726,10.2256989 28.1227688,10.0051575 28.8310781,10.2391858 C29.5393874,10.473214 30.0384356,11.115696 30.0954032,11.8668965 C30.1730977,12.8914119 29.4153458,13.7859421 28.402128,13.8658169 Z" id="Shape"></path>
                    </g>
                </g>
            </g>
        </g>
    </g>
</svg>