<?xml version="1.0" encoding="UTF-8"?>
<svg width="20px" height="16px" viewBox="0 0 20 16" version="1.1" xmlns="http://www.w3.org/2000/svg" xmlns:xlink="http://www.w3.org/1999/xlink">
    <title>envelope_icon copy</title>
    <g id="iOS/Android-вместе" stroke="none" stroke-width="1" fill="none" fill-rule="evenodd">
        <g id="Medium-Devices:-Tablets---6-col-Copy-15" transform="translate(-419.000000, -3582.000000)" fill="#1A3F5E" fill-rule="nonzero">
            <g id="footer" transform="translate(0.000000, 3562.000000)">
                <g id="Group-27" transform="translate(329.000000, 18.000000)">
                    <g id="envelope_icon-copy" transform="translate(90.000000, 0.000000)">
                        <g id="envelope-(1)" transform="translate(0.000000, 2.032031)">
                            <path d="M1.91820313,4.84019531 C2.17101563,5.01859375 2.93308594,5.5484375 4.20445313,6.42945313 C5.47585938,7.31046875 6.44984375,7.98882812 7.12644531,8.46457031 C7.20078125,8.51671875 7.35871094,8.63007813 7.6003125,8.80480469 C7.84195313,8.97964844 8.04273438,9.1209375 8.2025,9.22871094 C8.36238281,9.33644531 8.55566406,9.45730469 8.78253906,9.59109375 C9.00933594,9.72476562 9.223125,9.8253125 9.42386719,9.891875 C9.62464844,9.95898437 9.81050781,9.99222656 9.98148438,9.99222656 L9.99269531,9.99222656 L10.0039453,9.99222656 C10.1749219,9.99222656 10.3608594,9.95894531 10.5616406,9.891875 C10.7623047,9.8253125 10.9762891,9.72464844 11.2028906,9.59109375 C11.4296094,9.45714844 11.6228906,9.33640625 11.7827734,9.22871094 C11.9426563,9.1209375 12.1432813,8.97964844 12.385,8.80480469 C12.6265625,8.62992188 12.7846875,8.51671875 12.8590234,8.46457031 C13.5429297,7.98882813 15.2828906,6.78058594 18.0783594,4.83996094 C18.6210938,4.4609375 19.0745313,4.00359375 19.4387891,3.46824219 C19.8033203,2.933125 19.9853906,2.37175781 19.9853906,1.78445313 C19.9853906,1.29367188 19.8087109,0.873554688 19.4555078,0.524140625 C19.1023438,0.174648437 18.6840625,0 18.2009375,0 L1.78433594,0 C1.211875,0 0.771328125,0.19328125 0.462773438,0.57984375 C0.154257813,0.966484375 0,1.44976562 0,2.02964844 C0,2.49804687 0.20453125,3.005625 0.613398438,3.55207031 C1.02222656,4.09855469 1.45730469,4.52796875 1.91820313,4.84019531 Z" id="Path"></path>
                            <path d="M18.87,6.03339844 C16.4315625,7.68382813 14.58,8.96648438 13.3162109,9.88109375 C12.8924219,10.1932422 12.5486328,10.4369141 12.2846094,10.6115234 C12.0205859,10.78625 11.6694531,10.9646875 11.2307031,11.1467578 C10.7921094,11.3291016 10.3833594,11.42 10.0041016,11.42 L9.99273437,11.42 L9.98152344,11.42 C9.60234375,11.42 9.19335937,11.3291016 8.75476562,11.1467578 C8.31617187,10.9646875 7.96480469,10.78625 7.70085937,10.6115234 C7.43699219,10.4369141 7.09308594,10.1932422 6.66933594,9.88109375 C5.66554687,9.14507813 3.81796875,7.86234375 1.12652344,6.03339844 C0.702617187,5.75105469 0.327148438,5.42742188 0,5.06316406 L0,13.9180469 C0,14.4090625 0.174648438,14.8289453 0.524140625,15.1783984 C0.873554687,15.5279688 1.29371094,15.7026953 1.78445313,15.7026953 L18.2010938,15.7026953 C18.6917187,15.7026953 19.1118359,15.5279688 19.4612891,15.1783984 C19.8108594,14.8288281 19.9854297,14.4091016 19.9854297,13.9180469 L19.9854297,5.06316406 C19.6656641,5.41988281 19.2940234,5.74351563 18.87,6.03339844 Z" id="Path"></path>
                        </g>
                    </g>
                </g>
            </g>
        </g>
    </g>
</svg>