<?xml version="1.0" encoding="UTF-8"?>
<svg viewBox="0 0 31 20" version="1.1" xmlns="http://www.w3.org/2000/svg" xmlns:xlink="http://www.w3.org/1999/xlink">
    <title>034-china</title>
    <g id="iOS/Android-вместе" stroke="none" stroke-width="1" fill="none" fill-rule="evenodd">
        <g id="main_1.1_languages" transform="translate(-1109.000000, -189.000000)" fill-rule="nonzero">
            <g id="languages_full-copy" transform="translate(1093.000000, 82.000000)">
                <g id="Group-2" transform="translate(16.000000, 106.000000)">
                    <g id="034-china" transform="translate(0.000000, 1.000000)">
                        <path d="M28.6783301,0 L2.32166992,0 C1.0394082,0 0,1.02352064 0,2.28618274 L0,17.7138173 C0,18.9764197 1.0394082,20 2.32166992,20 L28.6783301,20 C29.9605312,20 31,18.9764794 31,17.7138173 L31,2.28618274 C31,1.02352064 29.9605918,0 28.6783301,0 Z" id="Path" fill="#FF4B55"></path>
                        <g id="Group" transform="translate(2.399342, 1.503234)" fill="#FFE15A">
                            <path d="M2.74756665,1.62426687 L3.25712915,3.12875338 L4.86767602,3.14103539 C5.07619946,3.14258554 5.1626604,3.40468123 4.99488501,3.52660701 L3.69930298,4.46868481 L4.18507056,5.98080286 C4.24791821,6.17659955 4.02159399,6.33847166 3.85194165,6.21910961 L2.54170727,5.29682611 L1.2314729,6.21904999 C1.06182056,6.33847166 0.835496336,6.17648031 0.898343993,5.98074324 L1.38411157,4.46862519 L0.0885295395,3.52660701 C-0.0792458512,3.40462161 0.00721508634,3.14258554 0.215738524,3.14103539 L1.8262854,3.12875338 L2.3358479,1.62426687 C2.40184399,1.42948374 2.6816311,1.42948374 2.74756665,1.62426687 Z" id="Path"></path>
                            <path d="M8.5959104,1.99499276 L8.96131079,2.48555767 L9.55097681,2.30395087 C9.62732641,2.28046004 9.69011352,2.36619562 9.64337134,2.43005014 L9.28239087,2.92377499 L9.63998071,3.41988469 C9.68629907,3.48409694 9.62290649,3.56941517 9.54673852,3.54538775 L8.95828345,3.35990556 L8.58961352,3.84814524 C8.54190259,3.91134393 8.4398811,3.87831367 8.43957837,3.79961341 L8.43685376,3.19117699 L7.85136548,2.99675159 C7.77556079,2.97153173 7.77592407,2.86588261 7.8519104,2.84119934 L8.43860962,2.65064934 L8.44551196,2.04227253 C8.44635962,1.96375114 8.54862329,1.93149596 8.5959104,1.99499276 Z" id="Path"></path>
                            <path d="M6.37129712,0.532479714 L6.98548462,0.598182501 L7.24753149,0.0472211057 C7.28149829,-0.0240860936 7.38812134,-0.0118637057 7.40440845,0.0652267697 L7.53070923,0.660725354 L8.14380688,0.735848323 C8.22318384,0.745566612 8.2443147,0.849188612 8.17486743,0.888359875 L7.63872485,1.19064039 L7.75564087,1.78804686 C7.77077759,1.86543544 7.67723266,1.91718682 7.61795727,1.86430264 L7.16028345,1.45559791 L6.61947876,1.74965068 C6.54948657,1.78774876 6.4704729,1.71608383 6.50328931,1.64424004 L6.75655688,1.08928401 L6.30536157,0.673603577 C6.24705493,0.620063556 6.29179907,0.524013474 6.37129712,0.532479714 Z" id="Path"></path>
                            <path d="M7.3423479,6.42867885 L6.97700806,6.919363 L6.38734204,6.73775621 C6.31099243,6.71426537 6.24820532,6.79994133 6.29494751,6.86385548 L6.65592798,7.35758032 L6.29833813,7.85369003 C6.25201977,7.91790228 6.31541235,8.00322051 6.39158032,7.97919308 L6.97997485,7.7937109 L7.34864477,8.28195057 C7.39635571,8.34514926 7.4983772,8.312119 7.49867993,8.23341875 L7.50140454,7.62498232 L8.08689282,7.43055692 C8.16269751,7.40533707 8.16233423,7.29968794 8.0863479,7.27500468 L7.49964868,7.08445467 L7.49274634,6.47607787 C7.49177759,6.39743723 7.38963501,6.36512243 7.3423479,6.42867885 Z" id="Path"></path>
                            <path d="M9.56684009,5.05428624 L8.95259204,5.11998903 L8.69054516,4.56902763 C8.65657837,4.49772043 8.55001587,4.50994282 8.53366821,4.5870333 L8.40730688,5.18253188 L7.79420923,5.25765485 C7.71483227,5.26737314 7.69370141,5.37099514 7.76314868,5.4101664 L8.29929126,5.71244692 L8.18237524,6.30985339 C8.16723852,6.38724197 8.26078345,6.43899335 8.32005884,6.38610917 L8.77773266,5.97740444 L9.31853735,6.27145721 C9.38852954,6.30955528 9.46754321,6.23789036 9.43472681,6.16604656 L9.18145923,5.61109053 L9.63265454,5.19541011 C9.69120337,5.14187008 9.64645923,5.04582 9.56684009,5.05428624 Z" id="Path"></path>
                        </g>
                    </g>
                </g>
            </g>
        </g>
    </g>
</svg>