<?xml version="1.0" encoding="UTF-8"?>
<svg width="20px" height="20px" viewBox="0 0 20 20" version="1.1" xmlns="http://www.w3.org/2000/svg" xmlns:xlink="http://www.w3.org/1999/xlink">
    <!-- Generator: Sketch 52.2 (67145) - http://www.bohemiancoding.com/sketch -->
    <title>instagram_icon</title>
    <desc>Created with Sketch.</desc>
    <g id="iOS/Android-вместе" stroke="none" stroke-width="1" fill="none" fill-rule="evenodd">
        <g id="main_1.1" transform="translate(-710.000000, -6604.000000)" fill="#1A3F5E" fill-rule="nonzero">
            <g id="footer" transform="translate(0.000000, 6586.000000)">
                <g id="Group-19">
                    <g id="Group-9">
                        <g id="Group-2">
                            <g id="footer">
                                <g id="Group-27" transform="translate(665.000000, 18.000000)">
                                    <g id="instagram_icon" transform="translate(45.375000, 0.375000)">
                                        <path d="M9.625,4.8125 C6.96729688,4.8125 4.8125,6.96729688 4.8125,9.625 C4.8125,12.2827031 6.96729688,14.4375 9.625,14.4375 C12.2827031,14.4375 14.4375,12.2827031 14.4375,9.625 C14.4375,6.96729688 12.2827031,4.8125 9.625,4.8125 Z M9.625,12.6328125 C7.96709375,12.6328125 6.6171875,11.2829063 6.6171875,9.625 C6.6171875,7.96589063 7.96709375,6.6171875 9.625,6.6171875 C11.2829063,6.6171875 12.6328125,7.96589063 12.6328125,9.625 C12.6328125,11.2829063 11.2829063,12.6328125 9.625,12.6328125 Z M14.7984375,5.09282813 C14.4442763,5.09282813 14.1571719,4.80572373 14.1571719,4.4515625 C14.1571719,4.09740127 14.4442763,3.81029688 14.7984375,3.81029688 C15.1525987,3.81029688 15.4397031,4.09740127 15.4397031,4.4515625 C15.4397031,4.80572373 15.1525987,5.09282813 14.7984375,5.09282813 Z M13.234375,0 C16.5562031,0 19.25,2.69379687 19.25,6.015625 L19.25,13.234375 C19.25,16.5562031 16.5562031,19.25 13.234375,19.25 L6.015625,19.25 C2.69379687,19.25 0,16.5562031 0,13.234375 L0,6.015625 C0,2.69379687 2.69379687,0 6.015625,0 L13.234375,0 Z M17.4453125,13.234375 L17.4453125,6.015625 C17.4453125,3.69359375 15.5564063,1.8046875 13.234375,1.8046875 L6.015625,1.8046875 C3.69359375,1.8046875 1.8046875,3.69359375 1.8046875,6.015625 L1.8046875,13.234375 C1.8046875,15.5564063 3.69359375,17.4453125 6.015625,17.4453125 L13.234375,17.4453125 C15.5564063,17.4453125 17.4453125,15.5564063 17.4453125,13.234375 Z" id="Shape"></path>
                                    </g>
                                </g>
                            </g>
                        </g>
                    </g>
                </g>
            </g>
        </g>
    </g>
</svg>